<svg xmlns="http://www.w3.org/2000/svg" xmlns:xlink="http://www.w3.org/1999/xlink" viewBox="0 0 2313 413">
  <defs>
    <style>
      .a {
        stroke: #000;
        stroke-miterlimit: 10;
        fill: url(#a);
      }

      .b {
        fill: #f2f2f2;
      }
    </style>
    <linearGradient id="a" x1="0.5" y1="206.5" x2="2312.5" y2="206.5" gradientUnits="userSpaceOnUse">
      <stop offset="0" stop-color="#9b2aff"/>
      <stop offset="1" stop-color="#d30971"/>
    </linearGradient>
  </defs>
  <rect class="a" x="0.5" y="0.5" width="2312" height="412"/>
  <g>
    <path class="b" d="M138.29,224.16a4.82,4.82,0,0,1-5-5v-90a4.82,4.82,0,0,1,5-5h60a5.05,5.05,0,0,1,3.52,1.34,4.56,4.56,0,0,1,1.48,3.52,4.47,4.47,0,0,1-1.48,3.33,4.9,4.9,0,0,1-3.52,1.41h-55v35.33h40.07a4.88,4.88,0,0,1,3.58,1.4,5,5,0,0,1,0,6.92,4.84,4.84,0,0,1-3.58,1.4H143.28v35.71h55a4.94,4.94,0,0,1,3.52,1.41,4.47,4.47,0,0,1,1.48,3.33,4.55,4.55,0,0,1-1.48,3.52,5,5,0,0,1-3.52,1.35Z"/>
    <path class="b" d="M215,224.16a4.3,4.3,0,0,1-3.26-1.28,4.56,4.56,0,0,1-1.28-3.08,5,5,0,0,1,1.34-3.45l23.55-29.44,5.51,7.29-22.4,28.42A4.06,4.06,0,0,1,215,224.16Zm50.69,0a5.21,5.21,0,0,1-2.5-.52,6.61,6.61,0,0,1-2-1.79L239,193.69l-3.84-3.33-22.28-28.28a5,5,0,0,1-1.34-3.46,5,5,0,0,1,1.22-3.14,4.13,4.13,0,0,1,3.32-1.34,5.07,5.07,0,0,1,3.72,1.54l21.5,27.52,3.46,2.81,23.8,30.46a5.06,5.06,0,0,1,1.41,3.85,4.1,4.1,0,0,1-1.6,2.81A4.45,4.45,0,0,1,265.65,224.16Zm-20.74-33.28-6.27-6.4,22.15-28a5.1,5.1,0,0,1,2-1.79,5.2,5.2,0,0,1,2.24-.51,4.17,4.17,0,0,1,3.33,1.34,4.53,4.53,0,0,1,1.09,3.2,6.09,6.09,0,0,1-1.35,3.52Z"/>
    <path class="b" d="M293.81,140.83a6.65,6.65,0,0,1-4.87-2.05,6.8,6.8,0,0,1-2-5,6.39,6.39,0,0,1,2.11-5.06,7.27,7.27,0,0,1,4.93-1.85,7.11,7.11,0,0,1,4.8,1.85,6.39,6.39,0,0,1,2.11,5.06,7,7,0,0,1-7,7Zm.13,83.33a4.66,4.66,0,0,1-5-5v-60a4.64,4.64,0,0,1,5-5,4.79,4.79,0,0,1,3.52,1.34,5,5,0,0,1,1.34,3.65v60a4.94,4.94,0,0,1-1.34,3.65A4.76,4.76,0,0,1,293.94,224.16Z"/>
    <path class="b" d="M319.66,165.28a4.41,4.41,0,0,1-3.26-1.22,4.09,4.09,0,0,1-1.22-3,4.23,4.23,0,0,1,1.22-3.13,4.41,4.41,0,0,1,3.26-1.22h33.41a4.4,4.4,0,0,1,3.26,1.22,4.2,4.2,0,0,1,1.22,3.13,4,4,0,0,1-1.22,3,4.4,4.4,0,0,1-3.26,1.22Zm12.93,58.88a4.65,4.65,0,0,1-3.33-1.35,4.79,4.79,0,0,1-1.41-3.65V154.27a37.86,37.86,0,0,1,3.08-15.75A23.65,23.65,0,0,1,340,128q6-3.76,14.72-3.77a5.13,5.13,0,0,1,3.58,1.28,4.34,4.34,0,0,1,0,6.4,5.13,5.13,0,0,1-3.58,1.28,16.34,16.34,0,0,0-9.54,2.62,15.59,15.59,0,0,0-5.63,7.3,28.72,28.72,0,0,0-1.86,10.69v65.4a4.94,4.94,0,0,1-1.34,3.65A5.11,5.11,0,0,1,332.59,224.16Z"/>
    <path class="b" d="M365.74,133.28a4.5,4.5,0,0,1-3.32-1.28,4.33,4.33,0,0,1-1.29-3.2,4.4,4.4,0,0,1,4.61-4.61h70.79a4.39,4.39,0,0,1,4.6,4.61,4.33,4.33,0,0,1-1.28,3.2,4.5,4.5,0,0,1-3.32,1.28Zm35.33,90.88a5,5,0,0,1-5-5v-95h10v95a4.9,4.9,0,0,1-1.41,3.52A4.71,4.71,0,0,1,401.07,224.16Z"/>
    <path class="b" d="M467.25,224.79a36.27,36.27,0,0,1-18.31-4.6,33.47,33.47,0,0,1-12.67-12.68,38.89,38.89,0,0,1,0-36.73,33.44,33.44,0,0,1,12.67-12.67,38.53,38.53,0,0,1,36.55,0,33.64,33.64,0,0,1,12.61,12.67,37.42,37.42,0,0,1,4.73,18.43,35.85,35.85,0,0,1-4.67,18.3,34.11,34.11,0,0,1-12.67,12.68A35.93,35.93,0,0,1,467.25,224.79Zm0-9a25.84,25.84,0,0,0,13.31-3.45,24.6,24.6,0,0,0,9.22-9.47,27.92,27.92,0,0,0,3.32-13.7,28.29,28.29,0,0,0-3.32-13.76,24.49,24.49,0,0,0-9.22-9.53,27.33,27.33,0,0,0-26.62,0,24.85,24.85,0,0,0-9.28,9.53,27.69,27.69,0,0,0-3.4,13.76,27.33,27.33,0,0,0,3.4,13.7,25,25,0,0,0,9.28,9.47A25.81,25.81,0,0,0,467.25,215.83Z"/>
    <path class="b" d="M526.89,224.16a4.45,4.45,0,0,1-4.86-4.87V159a4.87,4.87,0,1,1,9.73,0v60.29a4.45,4.45,0,0,1-4.87,4.87ZM526.13,181a29.8,29.8,0,0,1,4.16-14.21,27.91,27.91,0,0,1,9.85-9.85,26.11,26.11,0,0,1,13.51-3.59q5.88,0,9.08,1.67t2.44,4.86a3.83,3.83,0,0,1-1.73,2.56,5.31,5.31,0,0,1-3,.51c-1.15-.08-2.45-.17-3.9-.25a28.42,28.42,0,0,0-12.74,1.47,19.33,19.33,0,0,0-8.83,6.46A16.83,16.83,0,0,0,531.76,181Z"/>
  </g>
  <g>
    <path class="b" d="M137.82,310.92a2.07,2.07,0,0,1-2-1.14,2.43,2.43,0,0,1-.12-2.22l17.64-41.88a2.32,2.32,0,0,1,2.29-1.62,2.28,2.28,0,0,1,2.21,1.62l17.7,41.94a2.16,2.16,0,0,1-.15,2.22,2.19,2.19,0,0,1-1.95,1.08,2.36,2.36,0,0,1-1.29-.36,2.62,2.62,0,0,1-.93-1.08l-16.5-40h1.86l-16.62,40a2.26,2.26,0,0,1-.87,1.08A2.36,2.36,0,0,1,137.82,310.92Zm4-11.16,1.8-4h24.36l1.8,4Z"/>
    <path class="b" d="M184.32,310.92a2.31,2.31,0,0,1-1.71-.63,2.23,2.23,0,0,1-.63-1.65v-28.2a2.17,2.17,0,0,1,2.34-2.34,2.23,2.23,0,0,1,1.65.63,2.31,2.31,0,0,1,.63,1.71v28.2a2.16,2.16,0,0,1-2.28,2.28Zm25.8,0a2.28,2.28,0,0,1-1.68-.66,2.2,2.2,0,0,1-.66-1.62V293a12,12,0,0,0-1.41-6.12,9,9,0,0,0-3.84-3.6,12.23,12.23,0,0,0-5.49-1.2,12.09,12.09,0,0,0-5.31,1.14,9.46,9.46,0,0,0-3.75,3.12,7.68,7.68,0,0,0-1.38,4.5h-3.3a12.94,12.94,0,0,1,2-6.75,13.68,13.68,0,0,1,5.1-4.68,14.71,14.71,0,0,1,7.08-1.71,16.1,16.1,0,0,1,7.62,1.77,13,13,0,0,1,5.31,5.19,16.6,16.6,0,0,1,2,8.34v15.6a2.25,2.25,0,0,1-2.28,2.28Z"/>
    <path class="b" d="M255.06,311.22a17.13,17.13,0,0,1-8.61-2.13,15.32,15.32,0,0,1-5.88-5.91,17.29,17.29,0,0,1-2.13-8.64,18.07,18.07,0,0,1,2-8.67A15.19,15.19,0,0,1,246,280a15.35,15.35,0,0,1,8.16-2.16,15,15,0,0,1,8,2.07,14,14,0,0,1,5.25,5.73,18.15,18.15,0,0,1,1.86,8.34,2,2,0,0,1-.6,1.53,2.17,2.17,0,0,1-1.56.57h-25.5V292.2h26L265,294.06a13.72,13.72,0,0,0-1.26-6.24A10.27,10.27,0,0,0,260,283.5a10.49,10.49,0,0,0-5.79-1.56,11,11,0,0,0-6,1.62,10.82,10.82,0,0,0-4,4.47,14.49,14.49,0,0,0-1.41,6.51,13,13,0,0,0,1.59,6.48,11.74,11.74,0,0,0,4.35,4.44,12.33,12.33,0,0,0,6.36,1.62,13.36,13.36,0,0,0,4.35-.75,10.55,10.55,0,0,0,3.51-1.89,2.45,2.45,0,0,1,1.5-.57,2.11,2.11,0,0,1,1.44.45,2.22,2.22,0,0,1,.81,1.56,1.73,1.73,0,0,1-.69,1.44,16.31,16.31,0,0,1-5,2.79A17.22,17.22,0,0,1,255.06,311.22Z"/>
    <path class="b" d="M284.1,310.92a7.31,7.31,0,0,1-4.29-1.32,8.67,8.67,0,0,1-2.94-3.66,13.07,13.07,0,0,1-1.05-5.4v-34.2a2.28,2.28,0,1,1,4.56,0v34.2a7.6,7.6,0,0,0,1.05,4.2,3.1,3.1,0,0,0,2.67,1.62h1.5A1.8,1.8,0,0,1,287,307a2.45,2.45,0,0,1,.54,1.65,2.05,2.05,0,0,1-.75,1.65,2.93,2.93,0,0,1-1.95.63Z"/>
    <path class="b" d="M307,311.22a17.13,17.13,0,0,1-8.61-2.13,15.32,15.32,0,0,1-5.88-5.91,17.29,17.29,0,0,1-2.13-8.64,18.07,18.07,0,0,1,2-8.67A15.19,15.19,0,0,1,298,280a15.35,15.35,0,0,1,8.16-2.16,15,15,0,0,1,7.95,2.07,14,14,0,0,1,5.25,5.73,18.15,18.15,0,0,1,1.86,8.34,2,2,0,0,1-.6,1.53A2.17,2.17,0,0,1,319,296h-25.5V292.2h26l-2.58,1.86a13.72,13.72,0,0,0-1.26-6.24,10.27,10.27,0,0,0-3.75-4.32,10.49,10.49,0,0,0-5.79-1.56,11,11,0,0,0-6,1.62,10.82,10.82,0,0,0-4,4.47,14.49,14.49,0,0,0-1.41,6.51,13,13,0,0,0,1.59,6.48,11.74,11.74,0,0,0,4.35,4.44,12.33,12.33,0,0,0,6.36,1.62,13.36,13.36,0,0,0,4.35-.75,10.55,10.55,0,0,0,3.51-1.89,2.45,2.45,0,0,1,1.5-.57,2.11,2.11,0,0,1,1.44.45,2.22,2.22,0,0,1,.81,1.56,1.73,1.73,0,0,1-.69,1.44,16.31,16.31,0,0,1-5,2.79A17.22,17.22,0,0,1,307,311.22Z"/>
    <path class="b" d="M342.42,311.22A16.2,16.2,0,0,1,334,309a15.89,15.89,0,0,1-5.82-6,17.05,17.05,0,0,1-2.13-8.52,17.78,17.78,0,0,1,2-8.58,15.58,15.58,0,0,1,5.58-6,15.19,15.19,0,0,1,8.16-2.19,15.78,15.78,0,0,1,6.75,1.44,15.3,15.3,0,0,1,5.43,4.32,1.65,1.65,0,0,1,.48,1.53,2.38,2.38,0,0,1-1,1.41,1.83,1.83,0,0,1-1.47.33,2.38,2.38,0,0,1-1.41-.87,11.17,11.17,0,0,0-8.76-4,10.78,10.78,0,0,0-5.91,1.62,10.93,10.93,0,0,0-4,4.44,14.3,14.3,0,0,0-1.41,6.48A13.46,13.46,0,0,0,332,301a11.22,11.22,0,0,0,4.2,4.44,11.78,11.78,0,0,0,6.18,1.62,13.89,13.89,0,0,0,4.29-.63,9.65,9.65,0,0,0,3.45-1.95,2.65,2.65,0,0,1,1.5-.66,2,2,0,0,1,1.44.48,2.35,2.35,0,0,1,.81,1.5,1.62,1.62,0,0,1-.57,1.44A15.54,15.54,0,0,1,342.42,311.22Z"/>
    <path class="b" d="M361.38,283.32a2.09,2.09,0,0,1-1.5-.57,1.87,1.87,0,0,1-.6-1.41,1.94,1.94,0,0,1,.6-1.47,2.09,2.09,0,0,1,1.5-.57h15.3a2.09,2.09,0,0,1,1.5.57,1.94,1.94,0,0,1,.6,1.47,1.87,1.87,0,0,1-.6,1.41,2.09,2.09,0,0,1-1.5.57Zm14.94,27.6a10.65,10.65,0,0,1-9.6-5.61,12.15,12.15,0,0,1-1.44-6V270a2.33,2.33,0,0,1,.63-1.68,2.18,2.18,0,0,1,1.65-.66A2.26,2.26,0,0,1,369.9,270v29.34a7.1,7.1,0,0,0,1.8,5,6,6,0,0,0,4.62,1.95h1.62a2,2,0,0,1,1.56.66,2.4,2.4,0,0,1,.6,1.68,2.09,2.09,0,0,1-.72,1.65,2.63,2.63,0,0,1-1.8.63Z"/>
    <path class="b" d="M389.88,310.92a2.08,2.08,0,0,1-2.28-2.28V280.38a2.28,2.28,0,1,1,4.56,0v28.26a2.08,2.08,0,0,1-2.28,2.28Zm-.36-20.22a14,14,0,0,1,2-6.66,13.11,13.11,0,0,1,4.62-4.62,12.23,12.23,0,0,1,6.33-1.68,9.41,9.41,0,0,1,4.26.78,1.88,1.88,0,0,1,1.14,2.28A1.78,1.78,0,0,1,407,282a2.52,2.52,0,0,1-1.38.24l-1.83-.12a13.34,13.34,0,0,0-6,.69,9,9,0,0,0-4.14,3,7.87,7.87,0,0,0-1.53,4.86Z"/>
    <path class="b" d="M427.62,311.22a17,17,0,0,1-8.58-2.16,15.69,15.69,0,0,1-5.94-5.94,18.24,18.24,0,0,1,0-17.22A15.69,15.69,0,0,1,419,280a18.06,18.06,0,0,1,17.13,0,15.75,15.75,0,0,1,5.91,5.94,17.55,17.55,0,0,1,2.22,8.64,16.8,16.8,0,0,1-2.19,8.58,16,16,0,0,1-5.94,5.94A16.82,16.82,0,0,1,427.62,311.22Zm0-4.2a12.09,12.09,0,0,0,6.24-1.62,11.52,11.52,0,0,0,4.32-4.44,13,13,0,0,0,1.56-6.42,13.21,13.21,0,0,0-1.56-6.45,11.46,11.46,0,0,0-4.32-4.47,12.83,12.83,0,0,0-12.48,0,11.68,11.68,0,0,0-4.35,4.47,13,13,0,0,0-1.59,6.45A12.84,12.84,0,0,0,417,301a11.74,11.74,0,0,0,4.35,4.44A12.09,12.09,0,0,0,427.62,307Z"/>
    <path class="b" d="M455.64,310.92a2.31,2.31,0,0,1-1.71-.63,2.23,2.23,0,0,1-.63-1.65v-28.2a2.17,2.17,0,0,1,2.34-2.34,2.23,2.23,0,0,1,1.65.63,2.31,2.31,0,0,1,.63,1.71v28.2a2.16,2.16,0,0,1-2.28,2.28Zm25.8,0a2.28,2.28,0,0,1-1.68-.66,2.2,2.2,0,0,1-.66-1.62V293a12,12,0,0,0-1.41-6.12,9,9,0,0,0-3.84-3.6,12.23,12.23,0,0,0-5.49-1.2,12.09,12.09,0,0,0-5.31,1.14,9.46,9.46,0,0,0-3.75,3.12,7.68,7.68,0,0,0-1.38,4.5h-3.3a12.94,12.94,0,0,1,2-6.75,13.68,13.68,0,0,1,5.1-4.68,14.71,14.71,0,0,1,7.08-1.71,16.1,16.1,0,0,1,7.62,1.77,13,13,0,0,1,5.31,5.19,16.6,16.6,0,0,1,2,8.34v15.6a2.25,2.25,0,0,1-2.28,2.28Z"/>
    <path class="b" d="M526,311.22a15.76,15.76,0,0,1-14.07-8.16,17.05,17.05,0,0,1-2.13-8.52A16.8,16.8,0,0,1,512,286a16.13,16.13,0,0,1,6-6,17.61,17.61,0,0,1,17,0,16.2,16.2,0,0,1,5.94,6,17.24,17.24,0,0,1,2.25,8.58L541.26,296a15.15,15.15,0,0,1-2,7.77,14.89,14.89,0,0,1-5.46,5.46A15.26,15.26,0,0,1,526,311.22Zm.48-4.2a11.93,11.93,0,0,0,6.21-1.62,11.75,11.75,0,0,0,4.32-4.47,13.7,13.7,0,0,0,0-12.81,12,12,0,0,0-4.32-4.47,12.45,12.45,0,0,0-12.39,0,12.2,12.2,0,0,0-4.38,4.47,13.47,13.47,0,0,0,0,12.81A11.87,11.87,0,0,0,526.44,307Zm14.34,3.9a2.33,2.33,0,0,1-1.68-.63,2.18,2.18,0,0,1-.66-1.65V298.38l1.14-4.74,3.54.9v14.1a2.18,2.18,0,0,1-.66,1.65A2.33,2.33,0,0,1,540.78,310.92Z"/>
    <path class="b" d="M554.46,325a2.17,2.17,0,0,1-2.34-2.34V294.3a16.85,16.85,0,0,1,2.25-8.43,16,16,0,0,1,5.94-5.91,16.58,16.58,0,0,1,8.43-2.16,16.8,16.8,0,0,1,8.58,2.19,16.13,16.13,0,0,1,6,6,16.8,16.8,0,0,1,2.19,8.58,17.05,17.05,0,0,1-2.13,8.52,15.76,15.76,0,0,1-14.07,8.16,15.49,15.49,0,0,1-7.29-1.71,14.49,14.49,0,0,1-5.25-4.53v17.64a2.31,2.31,0,0,1-.63,1.71A2.23,2.23,0,0,1,554.46,325ZM568.74,307A12.09,12.09,0,0,0,575,305.4a11.68,11.68,0,0,0,4.35-4.47,13.7,13.7,0,0,0,0-12.81A11.89,11.89,0,0,0,568.74,282a11.79,11.79,0,0,0-10.5,6.12,13.93,13.93,0,0,0,0,12.81,11.46,11.46,0,0,0,4.32,4.47A12,12,0,0,0,568.74,307Z"/>
    <path class="b" d="M596.88,325a2.17,2.17,0,0,1-2.34-2.34V294.3a16.85,16.85,0,0,1,2.25-8.43,16,16,0,0,1,5.94-5.91,16.58,16.58,0,0,1,8.43-2.16,16.8,16.8,0,0,1,8.58,2.19,16.13,16.13,0,0,1,6,6,16.8,16.8,0,0,1,2.19,8.58,17.05,17.05,0,0,1-2.13,8.52,15.76,15.76,0,0,1-14.07,8.16,15.49,15.49,0,0,1-7.29-1.71,14.49,14.49,0,0,1-5.25-4.53v17.64a2.31,2.31,0,0,1-.63,1.71A2.23,2.23,0,0,1,596.88,325ZM611.16,307a12.09,12.09,0,0,0,6.24-1.62,11.68,11.68,0,0,0,4.35-4.47,13.7,13.7,0,0,0,0-12.81A11.89,11.89,0,0,0,611.16,282a11.79,11.79,0,0,0-10.5,6.12,13.93,13.93,0,0,0,0,12.81A11.46,11.46,0,0,0,605,305.4,12,12,0,0,0,611.16,307Z"/>
    <path class="b" d="M652.56,283.32a2.07,2.07,0,0,1-1.53-.57,1.92,1.92,0,0,1-.57-1.41,2,2,0,0,1,.57-1.47,2.07,2.07,0,0,1,1.53-.57h15.66a2.07,2.07,0,0,1,1.53.57,2,2,0,0,1,.57,1.47,1.92,1.92,0,0,1-.57,1.41,2.07,2.07,0,0,1-1.53.57Zm6.06,27.6a2.18,2.18,0,0,1-1.56-.63,2.25,2.25,0,0,1-.66-1.71V278.16a17.73,17.73,0,0,1,1.44-7.38,11.09,11.09,0,0,1,4.26-4.95,12.73,12.73,0,0,1,6.9-1.77,2.4,2.4,0,0,1,1.68.6,2,2,0,0,1,0,3,2.4,2.4,0,0,1-1.68.6,7.65,7.65,0,0,0-4.47,1.23,7.34,7.34,0,0,0-2.64,3.42,13.49,13.49,0,0,0-.87,5v30.66a2.31,2.31,0,0,1-.63,1.71A2.39,2.39,0,0,1,658.62,310.92Z"/>
    <path class="b" d="M690.24,311.22a17,17,0,0,1-8.58-2.16,15.69,15.69,0,0,1-5.94-5.94,18.24,18.24,0,0,1,0-17.22,15.69,15.69,0,0,1,5.94-5.94,18.06,18.06,0,0,1,17.13,0,15.75,15.75,0,0,1,5.91,5.94,17.55,17.55,0,0,1,2.22,8.64,16.8,16.8,0,0,1-2.19,8.58,16,16,0,0,1-5.94,5.94A16.82,16.82,0,0,1,690.24,311.22Zm0-4.2a12.09,12.09,0,0,0,6.24-1.62A11.52,11.52,0,0,0,700.8,301a13,13,0,0,0,1.56-6.42,13.21,13.21,0,0,0-1.56-6.45,11.46,11.46,0,0,0-4.32-4.47,12.83,12.83,0,0,0-12.48,0,11.68,11.68,0,0,0-4.35,4.47,13,13,0,0,0-1.59,6.45,12.84,12.84,0,0,0,1.59,6.42A11.74,11.74,0,0,0,684,305.4,12.09,12.09,0,0,0,690.24,307Z"/>
    <path class="b" d="M718.2,310.92a2.08,2.08,0,0,1-2.28-2.28V280.38a2.28,2.28,0,1,1,4.56,0v28.26a2.08,2.08,0,0,1-2.28,2.28Zm-.36-20.22a14,14,0,0,1,1.95-6.66,13.11,13.11,0,0,1,4.62-4.62,12.23,12.23,0,0,1,6.33-1.68,9.41,9.41,0,0,1,4.26.78,1.88,1.88,0,0,1,1.14,2.28,1.78,1.78,0,0,1-.81,1.2,2.52,2.52,0,0,1-1.38.24l-1.83-.12a13.34,13.34,0,0,0-6,.69,9,9,0,0,0-4.14,3,7.87,7.87,0,0,0-1.53,4.86Z"/>
    <path class="b" d="M772.2,310.92a2.31,2.31,0,0,1-2.16-1.56L756.72,281.1a1.93,1.93,0,0,1-.06-1.56,2.2,2.2,0,0,1,1.2-1.2,1.94,1.94,0,0,1,1.62-.12,2.25,2.25,0,0,1,1.2,1.08L773.46,307H771l12.6-27.66a1.89,1.89,0,0,1,1.23-1.11,2.4,2.4,0,0,1,1.71.09,2.21,2.21,0,0,1,1.14,1.23,1.85,1.85,0,0,1-.06,1.53l-13.14,28.32A2.38,2.38,0,0,1,772.2,310.92Z"/>
    <path class="b" d="M797.4,271.86a3.11,3.11,0,0,1-2.28-1,3.18,3.18,0,0,1-1-2.34,3,3,0,0,1,1-2.37,3.39,3.39,0,0,1,2.31-.87,3.31,3.31,0,0,1,2.25.87,3,3,0,0,1,1,2.37,3.28,3.28,0,0,1-3.3,3.3Zm.06,39.06a2.17,2.17,0,0,1-2.34-2.34V280.44a2.17,2.17,0,0,1,2.34-2.34,2.23,2.23,0,0,1,1.65.63,2.31,2.31,0,0,1,.63,1.71v28.14a2.31,2.31,0,0,1-.63,1.71A2.23,2.23,0,0,1,797.46,310.92Z"/>
    <path class="b" d="M826.38,311.22a17.13,17.13,0,0,1-8.61-2.13,15.32,15.32,0,0,1-5.88-5.91,17.29,17.29,0,0,1-2.13-8.64,18.07,18.07,0,0,1,2-8.67,15.19,15.19,0,0,1,5.55-5.91,15.35,15.35,0,0,1,8.16-2.16,15,15,0,0,1,7.95,2.07,14,14,0,0,1,5.25,5.73,18.15,18.15,0,0,1,1.86,8.34,2,2,0,0,1-.6,1.53,2.17,2.17,0,0,1-1.56.57h-25.5V292.2h26l-2.58,1.86a13.72,13.72,0,0,0-1.26-6.24,10.27,10.27,0,0,0-3.75-4.32,10.49,10.49,0,0,0-5.79-1.56,11,11,0,0,0-6,1.62,10.82,10.82,0,0,0-4,4.47,14.49,14.49,0,0,0-1.41,6.51,13,13,0,0,0,1.59,6.48,11.74,11.74,0,0,0,4.35,4.44,12.33,12.33,0,0,0,6.36,1.62,13.36,13.36,0,0,0,4.35-.75,10.55,10.55,0,0,0,3.51-1.89,2.45,2.45,0,0,1,1.5-.57,2.11,2.11,0,0,1,1.44.45,2.22,2.22,0,0,1,.81,1.56,1.73,1.73,0,0,1-.69,1.44,16.31,16.31,0,0,1-5,2.79A17.22,17.22,0,0,1,826.38,311.22Z"/>
    <path class="b" d="M854.58,310.92a2.35,2.35,0,0,1-1.38-.42,2.22,2.22,0,0,1-.84-1.08L843,281.34a3.58,3.58,0,0,1,.06-2.37,1.68,1.68,0,0,1,1.68-.87,2.35,2.35,0,0,1,1.38.42,2.52,2.52,0,0,1,.9,1.32l8.34,25.5H854l7.74-25.44a2.79,2.79,0,0,1,.81-1.29,2.12,2.12,0,0,1,1.47-.51,2.2,2.2,0,0,1,1.47.48,2.61,2.61,0,0,1,.81,1.32l7.38,24.84h-1l8.16-24.9a2.24,2.24,0,0,1,2.22-1.74,1.81,1.81,0,0,1,1.8,1,2.75,2.75,0,0,1,0,2.25l-9.36,28.08a2.28,2.28,0,0,1-.81,1.08,2.21,2.21,0,0,1-1.35.42,2.49,2.49,0,0,1-1.41-.42,1.87,1.87,0,0,1-.81-1.08l-7.56-25.08h.72l-7.56,25.08a2.05,2.05,0,0,1-.84,1.11A2.37,2.37,0,0,1,854.58,310.92Z"/>
    <path class="b" d="M894.78,271.86a3.11,3.11,0,0,1-2.28-1,3.18,3.18,0,0,1-1-2.34,3,3,0,0,1,1-2.37,3.39,3.39,0,0,1,2.31-.87,3.31,3.31,0,0,1,2.25.87,3,3,0,0,1,1,2.37,3.28,3.28,0,0,1-3.3,3.3Zm.06,39.06a2.17,2.17,0,0,1-2.34-2.34V280.44a2.17,2.17,0,0,1,2.34-2.34,2.23,2.23,0,0,1,1.65.63,2.31,2.31,0,0,1,.63,1.71v28.14a2.31,2.31,0,0,1-.63,1.71A2.23,2.23,0,0,1,894.84,310.92Z"/>
    <path class="b" d="M911.22,310.92a2.35,2.35,0,0,1-1.72-.63,2.22,2.22,0,0,1-.62-1.65v-28.2a2.31,2.31,0,0,1,.62-1.71,2.35,2.35,0,0,1,1.72-.63,2.23,2.23,0,0,1,1.65.63,2.31,2.31,0,0,1,.63,1.71v28.2a2.16,2.16,0,0,1-2.28,2.28Zm25.8,0a2.28,2.28,0,0,1-1.69-.66,2.19,2.19,0,0,1-.65-1.62V293a12,12,0,0,0-1.41-6.12,9.12,9.12,0,0,0-3.84-3.6,12.23,12.23,0,0,0-5.49-1.2,12.11,12.11,0,0,0-5.32,1.14,9.36,9.36,0,0,0-3.74,3.12,7.61,7.61,0,0,0-1.38,4.5h-3.3a12.84,12.84,0,0,1,2-6.75,13.68,13.68,0,0,1,5.1-4.68,14.72,14.72,0,0,1,7.09-1.71,16.16,16.16,0,0,1,7.62,1.77,13.12,13.12,0,0,1,5.31,5.19,16.7,16.7,0,0,1,1.94,8.34v15.6a2.24,2.24,0,0,1-2.27,2.28Z"/>
    <path class="b" d="M964,311.22a16.39,16.39,0,0,1-8.4-2.13,15.08,15.08,0,0,1-5.73-5.91,17.69,17.69,0,0,1-2.07-8.64,17.22,17.22,0,0,1,2.16-8.7,15.47,15.47,0,0,1,5.94-5.91,18.41,18.41,0,0,1,17.19,0,15.32,15.32,0,0,1,5.88,5.91,17.87,17.87,0,0,1,2.19,8.7l-2.7,1.44a16.36,16.36,0,0,1-1.86,7.89,13.75,13.75,0,0,1-5.13,5.4A14.3,14.3,0,0,1,964,311.22Zm.6,12.66a18.68,18.68,0,0,1-8.34-1.77,16.54,16.54,0,0,1-5.94-4.83,1.94,1.94,0,0,1-.57-1.56,1.88,1.88,0,0,1,.87-1.38,2.22,2.22,0,0,1,1.74-.36,2.34,2.34,0,0,1,1.5.9,12.78,12.78,0,0,0,4.47,3.48,14.38,14.38,0,0,0,6.33,1.32A11.44,11.44,0,0,0,975,313.5a14.29,14.29,0,0,0,1.59-6.9v-9.12l1.74-3.48,2.82.54v12.24a17.6,17.6,0,0,1-2.16,8.73,16.31,16.31,0,0,1-5.88,6.12A16.14,16.14,0,0,1,964.55,323.88ZM964.43,307a12.23,12.23,0,0,0,6.27-1.59A11.37,11.37,0,0,0,975,301a13.16,13.16,0,0,0,1.56-6.48A13.34,13.34,0,0,0,975,288a11.31,11.31,0,0,0-4.29-4.44,12.23,12.23,0,0,0-6.27-1.59,12.39,12.39,0,0,0-6.3,1.59,11.25,11.25,0,0,0-4.32,4.44,13.34,13.34,0,0,0-1.56,6.51,13.16,13.16,0,0,0,1.56,6.48,11.31,11.31,0,0,0,4.32,4.41A12.39,12.39,0,0,0,964.43,307Z"/>
    <path class="b" d="M1022.15,311.22a15.76,15.76,0,0,1-14.07-8.16,17.05,17.05,0,0,1-2.13-8.52,16.8,16.8,0,0,1,2.19-8.58,16.13,16.13,0,0,1,6-6,17.61,17.61,0,0,1,17,0,16.2,16.2,0,0,1,5.94,6,17.24,17.24,0,0,1,2.25,8.58l-1.86,1.44a15.15,15.15,0,0,1-2,7.77,14.89,14.89,0,0,1-5.46,5.46A15.26,15.26,0,0,1,1022.15,311.22Zm.48-4.2a11.93,11.93,0,0,0,6.21-1.62,11.75,11.75,0,0,0,4.32-4.47,13.7,13.7,0,0,0,0-12.81,12,12,0,0,0-4.32-4.47,12.45,12.45,0,0,0-12.39,0,12.2,12.2,0,0,0-4.38,4.47,13.47,13.47,0,0,0,0,12.81,11.87,11.87,0,0,0,10.56,6.09Zm14.34,3.9a2.33,2.33,0,0,1-1.68-.63,2.18,2.18,0,0,1-.66-1.65V298.38l1.14-4.74,3.54.9v14.1a2.18,2.18,0,0,1-.66,1.65A2.33,2.33,0,0,1,1037,310.92Z"/>
    <path class="b" d="M1050.65,310.92a2.31,2.31,0,0,1-1.71-.63,2.23,2.23,0,0,1-.63-1.65v-28.2a2.17,2.17,0,0,1,2.34-2.34,2.23,2.23,0,0,1,1.65.63,2.31,2.31,0,0,1,.63,1.71v28.2a2.16,2.16,0,0,1-2.28,2.28Zm25.8,0a2.28,2.28,0,0,1-1.68-.66,2.2,2.2,0,0,1-.66-1.62V293a12,12,0,0,0-1.41-6.12,9,9,0,0,0-3.84-3.6,12.23,12.23,0,0,0-5.49-1.2,12.09,12.09,0,0,0-5.31,1.14,9.46,9.46,0,0,0-3.75,3.12,7.68,7.68,0,0,0-1.38,4.5h-3.3a12.94,12.94,0,0,1,2-6.75,13.68,13.68,0,0,1,5.1-4.68,14.71,14.71,0,0,1,7.08-1.71,16.1,16.1,0,0,1,7.62,1.77,13,13,0,0,1,5.31,5.19,16.6,16.6,0,0,1,2,8.34v15.6a2.25,2.25,0,0,1-2.28,2.28Z"/>
    <path class="b" d="M1103.87,311.22a16.68,16.68,0,0,1-8.52-2.19,16.13,16.13,0,0,1-6-6,16.8,16.8,0,0,1-2.19-8.58,17.05,17.05,0,0,1,2.13-8.52,15.76,15.76,0,0,1,14.07-8.16,15.31,15.31,0,0,1,7.26,1.71,14.56,14.56,0,0,1,5.22,4.53V266.4a2.25,2.25,0,0,1,.66-1.71,2.55,2.55,0,0,1,3.36,0,2.25,2.25,0,0,1,.66,1.71v28.32a17.31,17.31,0,0,1-2.31,8.43,16,16,0,0,1-5.94,5.91A16.58,16.58,0,0,1,1103.87,311.22Zm0-4.2a11.77,11.77,0,0,0,6.21-1.65,12,12,0,0,0,4.32-4.47,13.7,13.7,0,0,0,0-12.81,11.75,11.75,0,0,0-4.32-4.47,12.15,12.15,0,0,0-16.77,4.47,13.47,13.47,0,0,0,0,12.81,12.2,12.2,0,0,0,4.38,4.47A11.81,11.81,0,0,0,1103.87,307Z"/>
    <path class="b" d="M1163.81,311.22a17.13,17.13,0,0,1-8.61-2.13,15.32,15.32,0,0,1-5.88-5.91,17.29,17.29,0,0,1-2.13-8.64,18.07,18.07,0,0,1,2-8.67,15.19,15.19,0,0,1,5.55-5.91,15.35,15.35,0,0,1,8.16-2.16,15,15,0,0,1,7.95,2.07,14,14,0,0,1,5.25,5.73,18.15,18.15,0,0,1,1.86,8.34,2,2,0,0,1-.6,1.53,2.17,2.17,0,0,1-1.56.57h-25.5V292.2h26l-2.58,1.86a13.72,13.72,0,0,0-1.26-6.24,10.27,10.27,0,0,0-3.75-4.32,10.49,10.49,0,0,0-5.79-1.56,11,11,0,0,0-6,1.62,10.82,10.82,0,0,0-4,4.47,14.49,14.49,0,0,0-1.41,6.51,13,13,0,0,0,1.59,6.48,11.74,11.74,0,0,0,4.35,4.44,12.33,12.33,0,0,0,6.36,1.62,13.36,13.36,0,0,0,4.35-.75,10.55,10.55,0,0,0,3.51-1.89,2.45,2.45,0,0,1,1.5-.57,2.11,2.11,0,0,1,1.44.45,2.22,2.22,0,0,1,.81,1.56,1.73,1.73,0,0,1-.69,1.44,16.31,16.31,0,0,1-5,2.79A17.22,17.22,0,0,1,1163.81,311.22Z"/>
    <path class="b" d="M1199.51,311.22A16.68,16.68,0,0,1,1191,309a16.13,16.13,0,0,1-6-6,16.8,16.8,0,0,1-2.19-8.58A17.05,17.05,0,0,1,1185,286,15.76,15.76,0,0,1,1199,277.8a15.31,15.31,0,0,1,7.26,1.71,14.56,14.56,0,0,1,5.22,4.53V266.4a2.25,2.25,0,0,1,.66-1.71,2.55,2.55,0,0,1,3.36,0,2.25,2.25,0,0,1,.66,1.71v28.32a17.31,17.31,0,0,1-2.31,8.43,16,16,0,0,1-5.94,5.91A16.58,16.58,0,0,1,1199.51,311.22Zm0-4.2a11.77,11.77,0,0,0,6.21-1.65,12,12,0,0,0,4.32-4.47,13.7,13.7,0,0,0,0-12.81,11.75,11.75,0,0,0-4.32-4.47,12.15,12.15,0,0,0-16.77,4.47,13.47,13.47,0,0,0,0,12.81,12.2,12.2,0,0,0,4.38,4.47A11.81,11.81,0,0,0,1199.51,307Z"/>
    <path class="b" d="M1230.23,271.86a3.11,3.11,0,0,1-2.28-1,3.18,3.18,0,0,1-1-2.34,3,3,0,0,1,1-2.37,3.39,3.39,0,0,1,2.31-.87,3.31,3.31,0,0,1,2.25.87,3,3,0,0,1,1,2.37,3.28,3.28,0,0,1-3.3,3.3Zm.06,39.06a2.17,2.17,0,0,1-2.34-2.34V280.44a2.17,2.17,0,0,1,2.34-2.34,2.23,2.23,0,0,1,1.65.63,2.31,2.31,0,0,1,.63,1.71v28.14a2.31,2.31,0,0,1-.63,1.71A2.23,2.23,0,0,1,1230.29,310.92Z"/>
    <path class="b" d="M1242.23,283.32a2.09,2.09,0,0,1-1.5-.57,1.87,1.87,0,0,1-.6-1.41,1.94,1.94,0,0,1,.6-1.47,2.09,2.09,0,0,1,1.5-.57h15.3a2.09,2.09,0,0,1,1.5.57,1.94,1.94,0,0,1,.6,1.47,1.87,1.87,0,0,1-.6,1.41,2.09,2.09,0,0,1-1.5.57Zm14.94,27.6a10.65,10.65,0,0,1-9.6-5.61,12.15,12.15,0,0,1-1.44-6V270a2.33,2.33,0,0,1,.63-1.68,2.18,2.18,0,0,1,1.65-.66,2.26,2.26,0,0,1,2.34,2.34v29.34a7.1,7.1,0,0,0,1.8,5,6,6,0,0,0,4.62,1.95h1.62a2,2,0,0,1,1.56.66,2.4,2.4,0,0,1,.6,1.68,2.09,2.09,0,0,1-.72,1.65,2.63,2.63,0,0,1-1.8.63Z"/>
    <path class="b" d="M1271.69,271.86a3.11,3.11,0,0,1-2.28-1,3.18,3.18,0,0,1-1-2.34,3,3,0,0,1,1-2.37,3.39,3.39,0,0,1,2.31-.87,3.31,3.31,0,0,1,2.25.87,3,3,0,0,1,1,2.37,3.28,3.28,0,0,1-3.3,3.3Zm.06,39.06a2.17,2.17,0,0,1-2.34-2.34V280.44a2.17,2.17,0,0,1,2.34-2.34,2.23,2.23,0,0,1,1.65.63,2.31,2.31,0,0,1,.63,1.71v28.14a2.31,2.31,0,0,1-.63,1.71A2.23,2.23,0,0,1,1271.75,310.92Z"/>
    <path class="b" d="M1288.13,310.92a2.31,2.31,0,0,1-1.71-.63,2.23,2.23,0,0,1-.63-1.65v-28.2a2.17,2.17,0,0,1,2.34-2.34,2.23,2.23,0,0,1,1.65.63,2.31,2.31,0,0,1,.63,1.71v28.2a2.16,2.16,0,0,1-2.28,2.28Zm25.8,0a2.28,2.28,0,0,1-1.68-.66,2.2,2.2,0,0,1-.66-1.62V293a12,12,0,0,0-1.41-6.12,9,9,0,0,0-3.84-3.6,12.23,12.23,0,0,0-5.49-1.2,12.09,12.09,0,0,0-5.31,1.14,9.46,9.46,0,0,0-3.75,3.12,7.68,7.68,0,0,0-1.38,4.5h-3.3a12.94,12.94,0,0,1,2-6.75,13.68,13.68,0,0,1,5.1-4.68,14.71,14.71,0,0,1,7.08-1.71,16.1,16.1,0,0,1,7.62,1.77,13,13,0,0,1,5.31,5.19,16.6,16.6,0,0,1,2,8.34v15.6a2.25,2.25,0,0,1-2.28,2.28Z"/>
    <path class="b" d="M1340.87,311.22a16.39,16.39,0,0,1-8.4-2.13,15.08,15.08,0,0,1-5.73-5.91,17.69,17.69,0,0,1-2.07-8.64,17.22,17.22,0,0,1,2.16-8.7,15.47,15.47,0,0,1,5.94-5.91,18.41,18.41,0,0,1,17.19,0,15.32,15.32,0,0,1,5.88,5.91,17.87,17.87,0,0,1,2.19,8.7l-2.7,1.44a16.36,16.36,0,0,1-1.86,7.89,13.75,13.75,0,0,1-5.13,5.4A14.3,14.3,0,0,1,1340.87,311.22Zm.6,12.66a18.68,18.68,0,0,1-8.34-1.77,16.54,16.54,0,0,1-5.94-4.83,1.94,1.94,0,0,1-.57-1.56,1.88,1.88,0,0,1,.87-1.38,2.22,2.22,0,0,1,1.74-.36,2.34,2.34,0,0,1,1.5.9,12.78,12.78,0,0,0,4.47,3.48,14.38,14.38,0,0,0,6.33,1.32,11.44,11.44,0,0,0,10.35-6.18,14.29,14.29,0,0,0,1.59-6.9v-9.12l1.74-3.48,2.82.54v12.24a17.6,17.6,0,0,1-2.16,8.73,16.31,16.31,0,0,1-5.88,6.12A16.14,16.14,0,0,1,1341.47,323.88Zm-.12-16.86a12.23,12.23,0,0,0,6.27-1.59,11.37,11.37,0,0,0,4.29-4.41,13.16,13.16,0,0,0,1.56-6.48,13.34,13.34,0,0,0-1.56-6.51,11.31,11.31,0,0,0-4.29-4.44,12.23,12.23,0,0,0-6.27-1.59,12.39,12.39,0,0,0-6.3,1.59,11.25,11.25,0,0,0-4.32,4.44,13.34,13.34,0,0,0-1.56,6.51,13.16,13.16,0,0,0,1.56,6.48,11.31,11.31,0,0,0,4.32,4.41A12.39,12.39,0,0,0,1341.35,307Z"/>
    <path class="b" d="M1399.49,311.22a17.13,17.13,0,0,1-8.61-2.13,15.32,15.32,0,0,1-5.88-5.91,17.29,17.29,0,0,1-2.13-8.64,18.07,18.07,0,0,1,2-8.67,15.19,15.19,0,0,1,5.55-5.91,15.35,15.35,0,0,1,8.16-2.16,15,15,0,0,1,8,2.07,14,14,0,0,1,5.25,5.73,18.15,18.15,0,0,1,1.86,8.34,2,2,0,0,1-.6,1.53,2.17,2.17,0,0,1-1.56.57H1386V292.2h26l-2.58,1.86a13.72,13.72,0,0,0-1.26-6.24,10.27,10.27,0,0,0-3.75-4.32,10.49,10.49,0,0,0-5.79-1.56,11,11,0,0,0-6,1.62,10.82,10.82,0,0,0-4,4.47,14.49,14.49,0,0,0-1.41,6.51,13,13,0,0,0,1.59,6.48,11.74,11.74,0,0,0,4.35,4.44,12.33,12.33,0,0,0,6.36,1.62,13.36,13.36,0,0,0,4.35-.75,10.55,10.55,0,0,0,3.51-1.89,2.45,2.45,0,0,1,1.5-.57,2.11,2.11,0,0,1,1.44.45,2.22,2.22,0,0,1,.81,1.56,1.73,1.73,0,0,1-.69,1.44,16.31,16.31,0,0,1-5,2.79A17.22,17.22,0,0,1,1399.49,311.22Z"/>
    <path class="b" d="M1418.81,310.92a2,2,0,0,1-1.53-.6,2.13,2.13,0,0,1-.6-1.44,2.35,2.35,0,0,1,.63-1.62l11-13.8,2.58,3.42-10.5,13.32A1.9,1.9,0,0,1,1418.81,310.92Zm23.76,0a2.48,2.48,0,0,1-1.17-.24,3.17,3.17,0,0,1-.93-.84l-10.38-13.2-1.8-1.56-10.44-13.26a2.35,2.35,0,0,1-.63-1.62,2.32,2.32,0,0,1,.57-1.47,1.94,1.94,0,0,1,1.56-.63,2.37,2.37,0,0,1,1.74.72l10.08,12.9,1.62,1.32L1444,307.32a2.36,2.36,0,0,1,.66,1.8,1.93,1.93,0,0,1-.75,1.32A2.11,2.11,0,0,1,1442.57,310.92Zm-9.72-15.6-2.94-3,10.38-13.14a2.31,2.31,0,0,1,2-1.08,1.94,1.94,0,0,1,1.56.63,2.11,2.11,0,0,1,.51,1.5,2.83,2.83,0,0,1-.63,1.65Z"/>
    <path class="b" d="M1455.77,271.86a3.1,3.1,0,0,1-2.28-1,3.18,3.18,0,0,1-1-2.34,3,3,0,0,1,1-2.37,3.39,3.39,0,0,1,2.31-.87,3.31,3.31,0,0,1,2.25.87,3,3,0,0,1,1,2.37,3.28,3.28,0,0,1-3.3,3.3Zm.06,39.06a2.17,2.17,0,0,1-2.34-2.34V280.44a2.17,2.17,0,0,1,2.34-2.34,2.23,2.23,0,0,1,1.65.63,2.31,2.31,0,0,1,.63,1.71v28.14a2.31,2.31,0,0,1-.63,1.71A2.23,2.23,0,0,1,1455.83,310.92Z"/>
    <path class="b" d="M1467.89,283.32a2.07,2.07,0,0,1-1.53-.57,1.92,1.92,0,0,1-.57-1.41,2,2,0,0,1,.57-1.47,2.07,2.07,0,0,1,1.53-.57h15.66a2.07,2.07,0,0,1,1.53.57,2,2,0,0,1,.57,1.47,1.92,1.92,0,0,1-.57,1.41,2.07,2.07,0,0,1-1.53.57Zm6.06,27.6a2.18,2.18,0,0,1-1.56-.63,2.25,2.25,0,0,1-.66-1.71V278.16a17.73,17.73,0,0,1,1.44-7.38,11,11,0,0,1,4.26-4.95,12.73,12.73,0,0,1,6.9-1.77,2.4,2.4,0,0,1,1.68.6,2,2,0,0,1,0,3,2.4,2.4,0,0,1-1.68.6,7.65,7.65,0,0,0-4.47,1.23,7.28,7.28,0,0,0-2.64,3.42,13.49,13.49,0,0,0-.87,5v30.66a2.31,2.31,0,0,1-.63,1.71A2.39,2.39,0,0,1,1474,310.92Z"/>
    <path class="b" d="M1511.75,310.92a2.3,2.3,0,0,1-1.71-.63,2.23,2.23,0,0,1-.63-1.65v-28.2a2.33,2.33,0,0,1,.63-1.68,2.24,2.24,0,0,1,1.71-.66,2.17,2.17,0,0,1,1.64.66,2.33,2.33,0,0,1,.63,1.68v28.2a2.16,2.16,0,0,1-2.27,2.28Zm21,0a2.33,2.33,0,0,1-1.68-.63,2.18,2.18,0,0,1-.66-1.65V291.36a9.82,9.82,0,0,0-2.21-6.75,7.33,7.33,0,0,0-5.71-2.49,8.23,8.23,0,0,0-6.12,2.43,8.62,8.62,0,0,0-2.4,6.33h-3.3a15.37,15.37,0,0,1,1.71-6.81,11.85,11.85,0,0,1,4.36-4.65,12.47,12.47,0,0,1,12.5,0,11.35,11.35,0,0,1,4.26,4.74,15.79,15.79,0,0,1,1.53,7.2v17.28a2.22,2.22,0,0,1-.62,1.65A2.25,2.25,0,0,1,1532.8,310.92Zm21,0a2.34,2.34,0,0,1-1.69-.63,2.17,2.17,0,0,1-.65-1.65V291.36a9.78,9.78,0,0,0-2.23-6.75,7.28,7.28,0,0,0-5.69-2.49,8,8,0,0,0-6.1,2.49,9,9,0,0,0-2.31,6.63H1531a14.83,14.83,0,0,1,1.73-7.08,12,12,0,0,1,4.62-4.74,13.18,13.18,0,0,1,6.66-1.68,11.78,11.78,0,0,1,6.28,1.68,11.55,11.55,0,0,1,4.26,4.74,16,16,0,0,1,1.52,7.2v17.28a2.16,2.16,0,0,1-2.27,2.28Z"/>
    <path class="b" d="M1581.11,311.22a17.1,17.1,0,0,1-8.61-2.13,15.25,15.25,0,0,1-5.88-5.91,17.29,17.29,0,0,1-2.13-8.64,18,18,0,0,1,2-8.67A15.09,15.09,0,0,1,1572,280a15.39,15.39,0,0,1,8.17-2.16,15,15,0,0,1,8,2.07,14,14,0,0,1,5.25,5.73,18.28,18.28,0,0,1,1.86,8.34,2,2,0,0,1-.6,1.53,2.21,2.21,0,0,1-1.56.57h-25.5V292.2h26l-2.58,1.86a13.85,13.85,0,0,0-1.25-6.24,10.27,10.27,0,0,0-3.75-4.32,10.49,10.49,0,0,0-5.79-1.56,11,11,0,0,0-6,1.62,10.84,10.84,0,0,0-4,4.47,14.49,14.49,0,0,0-1.4,6.51,12.86,12.86,0,0,0,1.59,6.48,11.67,11.67,0,0,0,4.35,4.44,12.3,12.3,0,0,0,6.36,1.62,13.45,13.45,0,0,0,4.35-.75,10.5,10.5,0,0,0,3.5-1.89,2.47,2.47,0,0,1,1.5-.57,2.15,2.15,0,0,1,1.45.45,2.25,2.25,0,0,1,.8,1.56,1.72,1.72,0,0,1-.68,1.44,16.31,16.31,0,0,1-5,2.79A17.22,17.22,0,0,1,1581.11,311.22Z"/>
    <path class="b" d="M1601,283.32a2.11,2.11,0,0,1-1.5-.57,1.86,1.86,0,0,1-.59-1.41,1.93,1.93,0,0,1,.59-1.47,2.11,2.11,0,0,1,1.5-.57h15.3a2.08,2.08,0,0,1,1.5.57,1.94,1.94,0,0,1,.61,1.47,1.88,1.88,0,0,1-.61,1.41,2.08,2.08,0,0,1-1.5.57Zm15,27.6a10.68,10.68,0,0,1-9.61-5.61,12.15,12.15,0,0,1-1.43-6V270a2.33,2.33,0,0,1,.63-1.68,2.16,2.16,0,0,1,1.65-.66,2.29,2.29,0,0,1,1.68.66,2.32,2.32,0,0,1,.66,1.68v29.34a7.05,7.05,0,0,0,1.8,5,6,6,0,0,0,4.62,1.95h1.62a2,2,0,0,1,1.55.66,2.4,2.4,0,0,1,.6,1.68,2.06,2.06,0,0,1-.72,1.65,2.61,2.61,0,0,1-1.79.63Z"/>
    <path class="b" d="M1641.64,311.22a15.76,15.76,0,0,1-14.07-8.16,17.05,17.05,0,0,1-2.13-8.52,16.8,16.8,0,0,1,2.19-8.58,16.13,16.13,0,0,1,6-6,17.61,17.61,0,0,1,17,0,16.2,16.2,0,0,1,5.94,6,17.24,17.24,0,0,1,2.25,8.58l-1.86,1.44a15.15,15.15,0,0,1-2,7.77,14.89,14.89,0,0,1-5.46,5.46A15.26,15.26,0,0,1,1641.64,311.22Zm.48-4.2a11.93,11.93,0,0,0,6.21-1.62,11.75,11.75,0,0,0,4.32-4.47,13.7,13.7,0,0,0,0-12.81,12,12,0,0,0-4.32-4.47,12.45,12.45,0,0,0-12.39,0,12.2,12.2,0,0,0-4.38,4.47,13.47,13.47,0,0,0,0,12.81,11.87,11.87,0,0,0,10.56,6.09Zm14.34,3.9a2.33,2.33,0,0,1-1.68-.63,2.18,2.18,0,0,1-.66-1.65V298.38l1.14-4.74,3.54.9v14.1a2.18,2.18,0,0,1-.66,1.65A2.33,2.33,0,0,1,1656.46,310.92Z"/>
    <path class="b" d="M1682.74,311.22a16.68,16.68,0,0,1-8.52-2.19,16.13,16.13,0,0,1-6-6,16.8,16.8,0,0,1-2.19-8.58,17.05,17.05,0,0,1,2.13-8.52,15.76,15.76,0,0,1,14.07-8.16,15.31,15.31,0,0,1,7.26,1.71,14.56,14.56,0,0,1,5.22,4.53V266.4a2.25,2.25,0,0,1,.66-1.71,2.55,2.55,0,0,1,3.36,0,2.25,2.25,0,0,1,.66,1.71v28.32a17.31,17.31,0,0,1-2.31,8.43,16,16,0,0,1-5.94,5.91A16.58,16.58,0,0,1,1682.74,311.22Zm0-4.2a11.77,11.77,0,0,0,6.21-1.65,12,12,0,0,0,4.32-4.47,13.7,13.7,0,0,0,0-12.81,11.75,11.75,0,0,0-4.32-4.47,12.15,12.15,0,0,0-16.77,4.47,13.47,13.47,0,0,0,0,12.81,12.2,12.2,0,0,0,4.38,4.47A11.81,11.81,0,0,0,1682.74,307Z"/>
    <path class="b" d="M1724.68,311.22a15.76,15.76,0,0,1-14.07-8.16,17.05,17.05,0,0,1-2.13-8.52,16.8,16.8,0,0,1,2.19-8.58,16.13,16.13,0,0,1,6-6,17.61,17.61,0,0,1,17,0,16.2,16.2,0,0,1,5.94,6,17.24,17.24,0,0,1,2.25,8.58L1740,296a15.15,15.15,0,0,1-2,7.77,14.89,14.89,0,0,1-5.46,5.46A15.26,15.26,0,0,1,1724.68,311.22Zm.48-4.2a11.93,11.93,0,0,0,6.21-1.62,11.75,11.75,0,0,0,4.32-4.47,13.7,13.7,0,0,0,0-12.81,12,12,0,0,0-4.32-4.47,12.45,12.45,0,0,0-12.39,0,12.2,12.2,0,0,0-4.38,4.47,13.47,13.47,0,0,0,0,12.81,11.87,11.87,0,0,0,10.56,6.09Zm14.34,3.9a2.33,2.33,0,0,1-1.68-.63,2.18,2.18,0,0,1-.66-1.65V298.38l1.14-4.74,3.54.9v14.1a2.18,2.18,0,0,1-.66,1.65A2.33,2.33,0,0,1,1739.5,310.92Z"/>
    <path class="b" d="M1748.74,283.32a2.09,2.09,0,0,1-1.5-.57,1.87,1.87,0,0,1-.6-1.41,1.94,1.94,0,0,1,.6-1.47,2.09,2.09,0,0,1,1.5-.57H1764a2.09,2.09,0,0,1,1.5.57,1.94,1.94,0,0,1,.6,1.47,1.87,1.87,0,0,1-.6,1.41,2.09,2.09,0,0,1-1.5.57Zm14.94,27.6a10.65,10.65,0,0,1-9.6-5.61,12.15,12.15,0,0,1-1.44-6V270a2.33,2.33,0,0,1,.63-1.68,2.18,2.18,0,0,1,1.65-.66,2.26,2.26,0,0,1,2.34,2.34v29.34a7.1,7.1,0,0,0,1.8,5,6,6,0,0,0,4.62,1.95h1.62a2,2,0,0,1,1.56.66,2.4,2.4,0,0,1,.6,1.68,2.09,2.09,0,0,1-.72,1.65,2.63,2.63,0,0,1-1.8.63Z"/>
    <path class="b" d="M1789.42,311.22a15.76,15.76,0,0,1-14.07-8.16,17.05,17.05,0,0,1-2.13-8.52,16.8,16.8,0,0,1,2.19-8.58,16.13,16.13,0,0,1,6-6,17.61,17.61,0,0,1,17,0,16.2,16.2,0,0,1,5.94,6,17.24,17.24,0,0,1,2.25,8.58l-1.86,1.44a15.15,15.15,0,0,1-2,7.77,14.89,14.89,0,0,1-5.46,5.46A15.26,15.26,0,0,1,1789.42,311.22Zm.48-4.2a11.93,11.93,0,0,0,6.21-1.62,11.75,11.75,0,0,0,4.32-4.47,13.7,13.7,0,0,0,0-12.81,12,12,0,0,0-4.32-4.47,12.45,12.45,0,0,0-12.39,0,12.2,12.2,0,0,0-4.38,4.47,13.47,13.47,0,0,0,0,12.81A11.87,11.87,0,0,0,1789.9,307Zm14.34,3.9a2.33,2.33,0,0,1-1.68-.63,2.18,2.18,0,0,1-.66-1.65V298.38l1.14-4.74,3.54.9v14.1a2.18,2.18,0,0,1-.66,1.65A2.33,2.33,0,0,1,1804.24,310.92Z"/>
    <path class="b" d="M1848.1,311.22a17,17,0,0,1-8.58-2.16,15.69,15.69,0,0,1-5.94-5.94,18.24,18.24,0,0,1,0-17.22,15.69,15.69,0,0,1,5.94-5.94,18.06,18.06,0,0,1,17.13,0,15.75,15.75,0,0,1,5.91,5.94,17.55,17.55,0,0,1,2.22,8.64,16.8,16.8,0,0,1-2.19,8.58,16,16,0,0,1-5.94,5.94A16.82,16.82,0,0,1,1848.1,311.22Zm0-4.2a12.09,12.09,0,0,0,6.24-1.62,11.52,11.52,0,0,0,4.32-4.44,13,13,0,0,0,1.56-6.42,13.21,13.21,0,0,0-1.56-6.45,11.46,11.46,0,0,0-4.32-4.47,12.83,12.83,0,0,0-12.48,0,11.68,11.68,0,0,0-4.35,4.47,13,13,0,0,0-1.59,6.45,12.84,12.84,0,0,0,1.59,6.42,11.74,11.74,0,0,0,4.35,4.44A12.09,12.09,0,0,0,1848.1,307Z"/>
    <path class="b" d="M1871.8,283.32a2.07,2.07,0,0,1-1.53-.57,1.92,1.92,0,0,1-.57-1.41,2,2,0,0,1,.57-1.47,2.07,2.07,0,0,1,1.53-.57h15.66a2.07,2.07,0,0,1,1.53.57,2,2,0,0,1,.57,1.47,1.92,1.92,0,0,1-.57,1.41,2.07,2.07,0,0,1-1.53.57Zm6.06,27.6a2.18,2.18,0,0,1-1.56-.63,2.25,2.25,0,0,1-.66-1.71V278.16a17.73,17.73,0,0,1,1.44-7.38,11.09,11.09,0,0,1,4.26-4.95,12.73,12.73,0,0,1,6.9-1.77,2.4,2.4,0,0,1,1.68.6,2,2,0,0,1,0,3,2.4,2.4,0,0,1-1.68.6,7.65,7.65,0,0,0-4.47,1.23,7.34,7.34,0,0,0-2.64,3.42,13.49,13.49,0,0,0-.87,5v30.66a2.31,2.31,0,0,1-.63,1.71A2.39,2.39,0,0,1,1877.86,310.92Z"/>
    <path class="b" d="M1916.56,271.86a3.11,3.11,0,0,1-2.28-1,3.18,3.18,0,0,1-1-2.34,3,3,0,0,1,1-2.37,3.39,3.39,0,0,1,2.31-.87,3.31,3.31,0,0,1,2.25.87,3,3,0,0,1,1,2.37,3.28,3.28,0,0,1-3.3,3.3Zm.06,39.06a2.17,2.17,0,0,1-2.34-2.34V280.44a2.17,2.17,0,0,1,2.34-2.34,2.23,2.23,0,0,1,1.65.63,2.31,2.31,0,0,1,.63,1.71v28.14a2.31,2.31,0,0,1-.63,1.71A2.23,2.23,0,0,1,1916.62,310.92Z"/>
    <path class="b" d="M1933,310.92a2.31,2.31,0,0,1-1.71-.63,2.23,2.23,0,0,1-.63-1.65v-28.2a2.33,2.33,0,0,1,.63-1.68,2.25,2.25,0,0,1,1.71-.66,2.18,2.18,0,0,1,1.65.66,2.33,2.33,0,0,1,.63,1.68v28.2a2.16,2.16,0,0,1-2.28,2.28Zm21.06,0a2.33,2.33,0,0,1-1.68-.63,2.18,2.18,0,0,1-.66-1.65V291.36a9.77,9.77,0,0,0-2.22-6.75,7.29,7.29,0,0,0-5.7-2.49,8.23,8.23,0,0,0-6.12,2.43,8.62,8.62,0,0,0-2.4,6.33H1932a15.24,15.24,0,0,1,1.71-6.81,11.9,11.9,0,0,1,4.35-4.65,12.48,12.48,0,0,1,12.51,0,11.41,11.41,0,0,1,4.26,4.74,15.92,15.92,0,0,1,1.53,7.2v17.28a2.16,2.16,0,0,1-2.28,2.28Zm20.94,0a2.33,2.33,0,0,1-1.68-.63,2.18,2.18,0,0,1-.66-1.65V291.36a9.77,9.77,0,0,0-2.22-6.75,7.29,7.29,0,0,0-5.7-2.49,8,8,0,0,0-6.09,2.49,9,9,0,0,0-2.31,6.63h-4.14a15,15,0,0,1,1.74-7.08,12,12,0,0,1,4.62-4.74,13.18,13.18,0,0,1,6.66-1.68,11.72,11.72,0,0,1,6.27,1.68,11.41,11.41,0,0,1,4.26,4.74,15.92,15.92,0,0,1,1.53,7.2v17.28a2.16,2.16,0,0,1-2.28,2.28Z"/>
    <path class="b" d="M2001.94,311.22a15.76,15.76,0,0,1-14.07-8.16,17.05,17.05,0,0,1-2.13-8.52,16.8,16.8,0,0,1,2.19-8.58,16.13,16.13,0,0,1,6-6,17.61,17.61,0,0,1,17,0,16.2,16.2,0,0,1,5.94,6,17.24,17.24,0,0,1,2.25,8.58l-1.86,1.44a15.15,15.15,0,0,1-2,7.77,14.89,14.89,0,0,1-5.46,5.46A15.26,15.26,0,0,1,2001.94,311.22Zm.48-4.2a11.93,11.93,0,0,0,6.21-1.62,11.75,11.75,0,0,0,4.32-4.47,13.7,13.7,0,0,0,0-12.81,12,12,0,0,0-4.32-4.47,12.45,12.45,0,0,0-12.39,0,12.2,12.2,0,0,0-4.38,4.47,13.47,13.47,0,0,0,0,12.81,11.87,11.87,0,0,0,10.56,6.09Zm14.34,3.9a2.33,2.33,0,0,1-1.68-.63,2.18,2.18,0,0,1-.66-1.65V298.38l1.14-4.74,3.54.9v14.1a2.18,2.18,0,0,1-.66,1.65A2.33,2.33,0,0,1,2016.76,310.92Z"/>
    <path class="b" d="M2042.56,311.22a16.39,16.39,0,0,1-8.4-2.13,15.08,15.08,0,0,1-5.73-5.91,17.69,17.69,0,0,1-2.07-8.64,17.22,17.22,0,0,1,2.16-8.7,15.47,15.47,0,0,1,5.94-5.91,18.41,18.41,0,0,1,17.19,0,15.32,15.32,0,0,1,5.88,5.91,17.87,17.87,0,0,1,2.19,8.7L2057,296a16.36,16.36,0,0,1-1.86,7.89,13.75,13.75,0,0,1-5.13,5.4A14.3,14.3,0,0,1,2042.56,311.22Zm.6,12.66a18.68,18.68,0,0,1-8.34-1.77,16.54,16.54,0,0,1-5.94-4.83,1.94,1.94,0,0,1-.57-1.56,1.88,1.88,0,0,1,.87-1.38,2.22,2.22,0,0,1,1.74-.36,2.34,2.34,0,0,1,1.5.9,12.78,12.78,0,0,0,4.47,3.48,14.38,14.38,0,0,0,6.33,1.32,11.44,11.44,0,0,0,10.35-6.18,14.29,14.29,0,0,0,1.59-6.9v-9.12l1.74-3.48,2.82.54v12.24a17.6,17.6,0,0,1-2.16,8.73,16.31,16.31,0,0,1-5.88,6.12A16.14,16.14,0,0,1,2043.16,323.88ZM2043,307a12.23,12.23,0,0,0,6.27-1.59,11.37,11.37,0,0,0,4.29-4.41,13.16,13.16,0,0,0,1.56-6.48,13.34,13.34,0,0,0-1.56-6.51,11.31,11.31,0,0,0-4.29-4.44A12.23,12.23,0,0,0,2043,282a12.39,12.39,0,0,0-6.3,1.59,11.25,11.25,0,0,0-4.32,4.44,13.34,13.34,0,0,0-1.56,6.51,13.16,13.16,0,0,0,1.56,6.48,11.31,11.31,0,0,0,4.32,4.41A12.39,12.39,0,0,0,2043,307Z"/>
    <path class="b" d="M2083.6,311.22a17.13,17.13,0,0,1-8.61-2.13,15.32,15.32,0,0,1-5.88-5.91,17.29,17.29,0,0,1-2.13-8.64,18.07,18.07,0,0,1,2-8.67,15.19,15.19,0,0,1,5.55-5.91,15.35,15.35,0,0,1,8.16-2.16,15,15,0,0,1,8,2.07,14,14,0,0,1,5.25,5.73,18.15,18.15,0,0,1,1.86,8.34,2,2,0,0,1-.6,1.53,2.17,2.17,0,0,1-1.56.57h-25.5V292.2h26l-2.58,1.86a13.72,13.72,0,0,0-1.26-6.24,10.27,10.27,0,0,0-3.75-4.32,10.49,10.49,0,0,0-5.79-1.56,11,11,0,0,0-6,1.62,10.82,10.82,0,0,0-4,4.47,14.49,14.49,0,0,0-1.41,6.51,13,13,0,0,0,1.59,6.48,11.74,11.74,0,0,0,4.35,4.44,12.33,12.33,0,0,0,6.36,1.62,13.36,13.36,0,0,0,4.35-.75,10.55,10.55,0,0,0,3.51-1.89,2.45,2.45,0,0,1,1.5-.57,2.11,2.11,0,0,1,1.44.45,2.22,2.22,0,0,1,.81,1.56,1.73,1.73,0,0,1-.69,1.44,16.31,16.31,0,0,1-5,2.79A17.22,17.22,0,0,1,2083.6,311.22Z"/>
    <path class="b" d="M2117,311.22a21.41,21.41,0,0,1-7-1.2,13.2,13.2,0,0,1-5.64-3.6,1.93,1.93,0,0,1-.54-1.62,2.43,2.43,0,0,1,.9-1.56,2.39,2.39,0,0,1,3.24.3,9.2,9.2,0,0,0,3.81,2.58,14.68,14.68,0,0,0,5.25.9q4.44,0,6.42-1.53a4.72,4.72,0,0,0,2-3.69,4.21,4.21,0,0,0-2-3.57,17.34,17.34,0,0,0-6.72-2.19q-6.06-1-8.88-3.36A7.27,7.27,0,0,1,2105,287a7.94,7.94,0,0,1,1.62-5.1,9.8,9.8,0,0,1,4.32-3.06,16.68,16.68,0,0,1,5.94-1,16,16,0,0,1,6.93,1.38,12.67,12.67,0,0,1,4.71,3.72,2.1,2.1,0,0,1,.48,1.62,1.94,1.94,0,0,1-1,1.38,2.42,2.42,0,0,1-1.65.27,2.69,2.69,0,0,1-1.59-.87,9.13,9.13,0,0,0-3.48-2.55,12,12,0,0,0-4.56-.81,9.22,9.22,0,0,0-5.28,1.35,4,4,0,0,0-2,3.39,3.94,3.94,0,0,0,.75,2.4,6.09,6.09,0,0,0,2.58,1.8,23.12,23.12,0,0,0,5.13,1.32,22.77,22.77,0,0,1,7.11,2.13,9.24,9.24,0,0,1,3.72,3.3,8,8,0,0,1,1.11,4.11,7.85,7.85,0,0,1-1.65,4.95,10.84,10.84,0,0,1-4.56,3.33A17.43,17.43,0,0,1,2117,311.22Z"/>
  </g>
</svg>
